<?xml version="1.0" ?>

<!DOCTYPE svg  PUBLIC '-//W3C//DTD SVG 1.1//EN'  'http://www.w3.org/Graphics/SVG/1.1/DTD/svg11.dtd'>

<!-- Uploaded to: SVG Repo, www.svgrepo.com, Generator: SVG Repo Mixer Tools -->
<svg width="24px" height="24px" viewBox="0 0 32 32" enable-background="new 0 0 32 32" version="1.1" xml:space="preserve" xmlns="http://www.w3.org/2000/svg" xmlns:xlink="http://www.w3.org/1999/xlink">

<g id="Files_Folder40">

<g>

<g>

<path d="M28,6v16c0,0.55-0.45,1-1,1H5c-0.55,0-1-0.45-1-1V2c0-0.55,0.45-1,1-1h8.64c0.35,0,0.68,0.19,0.86,0.49     L16.57,5H27C27.55,5,28,5.45,28,6z" fill="#FFC10A"/>

</g>

<g>

<path d="M31,22v8c0,0.55-0.45,1-1,1H2c-0.55,0-1-0.45-1-1v-8c0-0.55,0.45-1,1-1h28C30.55,21,31,21.45,31,22z" fill="#FE9803"/>

</g>

</g>

<g>

<path d="M22,11H10c-0.5527,0-1,0.4473-1,1s0.4473,1,1,1h12c0.5527,0,1-0.4473,1-1S22.5527,11,22,11z" fill="#FE9803"/>

<path d="M21,15H11c-0.5527,0-1,0.4473-1,1s0.4473,1,1,1h10c0.5527,0,1-0.4473,1-1S21.5527,15,21,15z" fill="#FE9803"/>

</g>

</g>

<g id="Files_Folder39"/>

<g id="Files_Folder38"/>

<g id="Files_Folder37"/>

<g id="Files_Folder36"/>

<g id="Files_Folder35"/>

<g id="Files_Folder34"/>

<g id="Files_Folder33"/>

<g id="Files_Folder32"/>

<g id="Files_Folder31"/>

<g id="Files_Folder30"/>

<g id="Files_Folder29"/>

<g id="Files_Folder28"/>

<g id="Files_Folder27"/>

<g id="Files_Folder26"/>

<g id="Files_Folder25"/>

<g id="Files_Folder24"/>

<g id="Files_Folder23"/>

<g id="Files_Folder22"/>

<g id="Files_Folder21"/>

<g id="Files_Folder20"/>

<g id="Files_Folder19"/>

<g id="Files_Folder18"/>

<g id="Files_Folder17"/>

<g id="Files_Folder16"/>

<g id="Files_Folder15"/>

<g id="Files_Folder14"/>

<g id="Files_Folder13"/>

<g id="Files_Folder12"/>

<g id="Files_Folder11"/>

<g id="Files_Folder10"/>

<g id="Files_Folder09"/>

<g id="Files_Folder08"/>

<g id="Files_Folder07"/>

<g id="Files_Folder06"/>

<g id="Files_Folder05"/>

<g id="Files_Folder04"/>

<g id="Files_Folder03"/>

<g id="Files_Folder02"/>

<g id="Files_Folder01"/>

</svg>